<?xml version="1.0" encoding="UTF-8" standalone="no"?>
<svg
   width="64"
   height="64"
   viewBox="0 0 64 64"
   fill="none"
   version="1.1"
   id="svg6"
   sodipodi:docname="plateInOut.svg"
   inkscape:version="1.1.2 (0a00cf5339, 2022-02-04)"
   xmlns:inkscape="http://www.inkscape.org/namespaces/inkscape"
   xmlns:sodipodi="http://sodipodi.sourceforge.net/DTD/sodipodi-0.dtd"
   xmlns="http://www.w3.org/2000/svg"
   xmlns:svg="http://www.w3.org/2000/svg">
  <defs
     id="defs10" />
  <sodipodi:namedview
     id="namedview8"
     pagecolor="#ffffff"
     bordercolor="#666666"
     borderopacity="1.0"
     inkscape:pageshadow="2"
     inkscape:pageopacity="0.0"
     inkscape:pagecheckerboard="0"
     showgrid="false"
     inkscape:zoom="8.3125"
     inkscape:cx="35.428571"
     inkscape:cy="41.684211"
     inkscape:window-width="1292"
     inkscape:window-height="704"
     inkscape:window-x="74"
     inkscape:window-y="27"
     inkscape:window-maximized="1"
     inkscape:current-layer="svg6" />
  <path
     d="M20.37 3.37999C20.2511 3.20261 20.0904 3.05723 19.9021 2.95671C19.7137 2.85618 19.5035 2.80359 19.29 2.80359C19.0765 2.80359 18.8662 2.85618 18.6779 2.95671C18.4895 3.05723 18.3288 3.20261 18.21 3.37999L10.92 16C10.781 16.2455 10.7291 16.5307 10.7728 16.8094C10.8164 17.0881 10.9531 17.3438 11.1605 17.535C11.3679 17.7262 11.6339 17.8416 11.9152 17.8625C12.1965 17.8834 12.4766 17.8085 12.71 17.65L18 14V60C18 60.3315 18.1317 60.6495 18.3661 60.8839C18.6005 61.1183 18.9185 61.25 19.25 61.25C19.5815 61.25 19.8994 61.1183 20.1339 60.8839C20.3683 60.6495 20.5 60.3315 20.5 60V14L25.83 17.65C26.0616 17.8325 26.3503 17.9272 26.645 17.9174C26.9398 17.9076 27.2215 17.7939 27.4405 17.5964C27.6595 17.3989 27.8017 17.1304 27.8418 16.8383C27.882 16.5461 27.8176 16.2492 27.66 16L20.37 3.37999Z"
     fill="black"
     id="path2"
     style="fill:#000000" />
  <path
     d="M52.85 46.45C52.6412 46.257 52.3729 46.1409 52.0893 46.1209C51.8057 46.1009 51.5238 46.1782 51.29 46.34L46 50V4C46 3.66848 45.8683 3.35054 45.6339 3.11612C45.3995 2.8817 45.0815 2.75 44.75 2.75C44.4185 2.75 44.1005 2.8817 43.8661 3.11612C43.6317 3.35054 43.5 3.66848 43.5 4V50L38.17 46.35C37.9383 46.1675 37.6497 46.0728 37.3549 46.0826C37.0602 46.0924 36.7784 46.2061 36.5594 46.4036C36.3404 46.601 36.1983 46.8696 36.1581 47.1617C36.118 47.4538 36.1824 47.7508 36.34 48L43.63 60.63C43.742 60.8164 43.9003 60.9706 44.0896 61.0777C44.2788 61.1847 44.4926 61.241 44.71 61.241C44.9274 61.241 45.1412 61.1847 45.3304 61.0777C45.5197 60.9706 45.678 60.8164 45.79 60.63L53.08 48C53.2241 47.7541 53.2798 47.4664 53.238 47.1845C53.1962 46.9026 53.0593 46.6434 52.85 46.45Z"
     fill="black"
     id="path4"
     style="fill:#000000" />
</svg>
